# This file uses centimeters as units for non-parametric coordinates.

mtllib GemShardMayaExport.mtl
g default
v 1.800745 7.718102 -1.618370
v 0.578148 7.888102 -2.506625
v -0.770569 7.820691 -2.345199
v -1.987317 8.177451 -1.332463
v -2.457249 8.177451 0.113839
v -1.990982 7.800049 1.449644
v -0.648847 7.335634 2.424197
v 0.871886 7.338771 2.424197
v 1.993178 7.900643 1.448196
v 2.455106 7.906230 -0.005052
v 0.030958 15.602537 0.357282
v 0.167337 -0.000000 -0.428423
vt 0.693521 0.604813
vt 0.206784 0.932667
vt 0.101215 0.272089
vt 0.170031 0.336156
vt 0.240009 0.383161
vt 0.315451 0.408069
vt 0.404850 0.431441
vt 0.475297 0.470512
vt 0.530749 0.535059
vt 0.604101 0.571001
vt 0.714222 0.037534
vt 0.835305 0.690594
vt 0.765548 0.653787
vn 0.585784 0.318259 -0.745364
vn 0.585784 0.318259 -0.745364
vn 0.585784 0.318259 -0.745364
vn -0.128478 0.337125 -0.932652
vn -0.128478 0.337125 -0.932652
vn -0.128478 0.337125 -0.932652
vn -0.547161 0.324332 -0.771637
vn -0.547161 0.324332 -0.771637
vn -0.547161 0.324332 -0.771637
vn -0.903462 0.312382 -0.293553
vn -0.903462 0.312382 -0.293553
vn -0.903462 0.312382 -0.293553
vn -0.878362 0.281685 0.386178
vn -0.878362 0.281685 0.386178
vn -0.878362 0.281685 0.386178
vn -0.511644 0.247767 0.822698
vn -0.511644 0.247767 0.822698
vn -0.511644 0.247767 0.822698
vn -0.000500 0.242595 0.970127
vn -0.000500 0.242595 0.970128
vn -0.000500 0.242595 0.970128
vn 0.559342 0.254257 0.788981
vn 0.559342 0.254257 0.788981
vn 0.559342 0.254257 0.788981
vn 0.916028 0.274769 0.292224
vn 0.916028 0.274769 0.292224
vn 0.916028 0.274769 0.292224
vn 0.873484 0.293416 -0.388500
vn 0.873484 0.293416 -0.388500
vn 0.873484 0.293416 -0.388500
vn 0.548632 -0.239603 -0.800995
vn 0.548632 -0.239603 -0.800995
vn 0.548632 -0.239603 -0.800995
vn -0.102866 -0.248402 -0.963180
vn -0.102866 -0.248402 -0.963180
vn -0.102866 -0.248402 -0.963180
vn -0.661665 -0.252395 -0.706043
vn -0.661665 -0.252395 -0.706043
vn -0.661665 -0.252395 -0.706043
vn -0.914695 -0.273867 -0.297202
vn -0.914695 -0.273867 -0.297203
vn -0.914695 -0.273867 -0.297202
vn -0.921194 -0.311154 0.233636
vn -0.921194 -0.311154 0.233636
vn -0.921194 -0.311154 0.233636
vn -0.626744 -0.342006 0.700160
vn -0.626744 -0.342006 0.700160
vn -0.626744 -0.342006 0.700160
vn 0.000748 -0.362360 0.932038
vn 0.000748 -0.362360 0.932038
vn 0.000748 -0.362360 0.932038
vn 0.707968 -0.313885 0.632659
vn 0.707968 -0.313885 0.632659
vn 0.707968 -0.313885 0.632659
vn 0.915116 -0.280319 0.289801
vn 0.915116 -0.280319 0.289801
vn 0.915116 -0.280319 0.289801
vn 0.908132 -0.244583 -0.339817
vn 0.908132 -0.244583 -0.339817
vn 0.908132 -0.244583 -0.339817
s off
g pCone1
usemtl standardSurface2SG
f 1/1/1 2/13/2 11/2/3
f 2/13/4 3/12/5 11/2/6
f 3/3/7 4/4/8 11/2/9
f 4/4/10 5/5/11 11/2/12
f 5/5/13 6/6/14 11/2/15
f 6/6/16 7/7/17 11/2/18
f 7/7/19 8/8/20 11/2/21
f 8/8/22 9/9/23 11/2/24
f 9/9/25 10/10/26 11/2/27
f 10/10/28 1/1/29 11/2/30
f 1/1/31 12/11/32 2/13/33
f 2/13/34 12/11/35 3/12/36
f 3/3/37 12/11/38 4/4/39
f 4/4/40 12/11/41 5/5/42
f 5/5/43 12/11/44 6/6/45
f 6/6/46 12/11/47 7/7/48
f 7/7/49 12/11/50 8/8/51
f 8/8/52 12/11/53 9/9/54
f 9/9/55 12/11/56 10/10/57
f 10/10/58 12/11/59 1/1/60
