# This file uses centimeters as units for non-parametric coordinates.

mtllib DoubloonMayaExport.mtl
g default
v 1.327104 -0.084171 -0.313896
v 0.901912 -0.123057 -0.954378
v 0.340725 -0.149771 -1.394728
v -0.070893 -0.171193 -1.409435
v -0.554447 -0.171887 -1.303748
v -0.956892 -0.163389 -0.971233
v -1.224140 -0.141974 -0.507056
v -1.303137 -0.105419 0.033604
v -1.229911 -0.100000 0.530674
v -0.949966 -0.090955 0.916757
v -0.540644 -0.049542 1.185994
v -0.020324 -0.018551 1.370015
v 0.507055 -0.018551 1.243622
v 0.898895 -0.039701 0.915701
v 1.112581 -0.066849 0.444807
v 1.326991 -0.073900 0.053848
v 1.327104 0.115829 -0.313896
v 0.901912 0.076943 -0.954378
v 0.340725 0.050229 -1.394728
v -0.071736 0.028807 -1.377831
v -0.530064 0.028113 -1.247212
v -0.931665 0.036611 -0.946301
v -1.224140 0.058026 -0.507056
v -1.382857 0.094581 0.033604
v -1.309631 0.100000 0.530674
v -0.964625 0.109045 0.923641
v -0.555303 0.150458 1.192877
v -0.020324 0.181449 1.370015
v 0.507055 0.181449 1.243622
v 0.898895 0.160299 0.915701
v 1.112581 0.133151 0.444807
v 1.326991 0.126100 0.053848
v 1.233201 -0.085330 -0.282536
v 0.830389 -0.122250 -0.886645
v 0.308507 -0.151975 -1.298663
v -0.074895 -0.172001 -1.315757
v -0.515968 -0.171710 -1.211618
v -0.888053 -0.162558 -0.902704
v -1.133528 -0.142456 -0.469523
v -1.254891 -0.106916 0.031207
v -1.185208 -0.100000 0.490264
v -0.917636 -0.089271 0.890118
v -0.533256 -0.049333 1.137503
v -0.021845 -0.019714 1.268608
v 0.469522 -0.019622 1.153865
v 0.827608 -0.039049 0.845270
v 1.025534 -0.066067 0.409264
v 1.227660 -0.075065 0.054048
v 1.233201 0.114670 -0.282536
v 0.830389 0.077750 -0.886645
v 0.308507 0.048025 -1.298663
v -0.075738 0.027999 -1.284154
v -0.491585 0.028290 -1.155083
v -0.862826 0.037442 -0.877772
v -1.133528 0.057544 -0.469523
v -1.324002 0.093084 0.034854
v -1.254318 0.100000 0.493911
v -0.921584 0.110729 0.904526
v -0.537204 0.150667 1.151912
v -0.021845 0.180286 1.268608
v 0.469522 0.180378 1.153865
v 0.827608 0.160951 0.845270
v 1.025534 0.133933 0.409264
v 1.227660 0.124935 0.054048
v 1.221849 -0.035391 -0.243323
v 0.820430 -0.072165 -0.845429
v 0.309870 -0.101759 -1.297266
v -0.066203 -0.121820 -1.300871
v -0.497926 -0.121442 -1.179077
v -0.878035 -0.112291 -0.884356
v -1.133528 -0.092286 -0.469523
v -1.286579 -0.056916 0.034499
v -1.217574 -0.050000 0.494380
v -0.898653 -0.039460 0.857037
v -0.514442 0.000279 1.104596
v -0.021581 0.029988 1.268307
v 0.469522 0.030082 1.153616
v 0.810902 0.010507 0.845538
v 1.002314 -0.016428 0.374566
v 1.220680 -0.025135 0.018143
v 1.166650 0.076681 -0.257562
v 0.781361 0.027835 -0.862904
v 0.309870 -0.001560 -1.297266
v -0.066203 -0.021568 -1.300871
v -0.497926 -0.021431 -1.179077
v -0.878035 -0.012291 -0.884356
v -1.133528 0.007714 -0.469523
v -1.286579 0.043084 0.034499
v -1.217574 0.050000 0.494380
v -0.898653 0.060540 0.857037
v -0.514442 0.100602 1.104596
v -0.021581 0.129988 1.268307
v 0.469522 0.130101 1.153616
v 0.789422 0.082582 0.845538
v 0.987779 0.055308 0.409774
v 1.243756 0.062663 0.050114
v 0.000000 0.050000 0.000000
v 0.000000 -0.050000 0.000000
vt 0.474620 0.281643
vt 0.387963 0.232349
vt 0.402299 0.209582
vt 0.488548 0.259392
vt 0.308629 0.185931
vt 0.322697 0.163576
vt 0.264324 0.161449
vt 0.277388 0.137170
vt 0.209613 0.132477
vt 0.221712 0.107148
vt 0.150978 0.104336
vt 0.161377 0.079253
vt 0.088449 0.076982
vt 0.097219 0.051963
vt 0.021196 0.051160
vt 0.981613 0.547330
vt 0.907339 0.540400
vt 0.924308 0.517776
vt 0.852978 0.508147
vt 0.866084 0.484762
vt 0.797470 0.474755
vt 0.811244 0.451349
vt 0.736303 0.437104
vt 0.749306 0.414041
vt 0.676476 0.401520
vt 0.690767 0.378606
vt 0.620464 0.367493
vt 0.635191 0.345651
vt 0.562657 0.332924
vt 0.577535 0.309592
vt 0.513714 0.302911
vt 0.527719 0.279856
vt 0.467867 0.292416
vt 0.381808 0.243601
vt 0.303351 0.197893
vt 0.256943 0.171570
vt 0.203088 0.143557
vt 0.144682 0.115487
vt 0.082910 0.088524
vt 0.020185 0.057615
vt 0.906267 0.548151
vt 0.849617 0.512462
vt 0.795956 0.481092
vt 0.730283 0.448734
vt 0.669328 0.411910
vt 0.612495 0.377529
vt 0.556919 0.344259
vt 0.510368 0.315077
vt 0.408961 0.198600
vt 0.494199 0.248064
vt 0.329837 0.152946
vt 0.281045 0.125195
vt 0.226566 0.095038
vt 0.166241 0.067457
vt 0.102867 0.040473
vt 0.984011 0.539669
vt 0.929410 0.511073
vt 0.866690 0.478529
vt 0.814372 0.446371
vt 0.756745 0.403247
vt 0.696581 0.367403
vt 0.640328 0.333936
vt 0.584992 0.299305
vt 0.536571 0.270777
vt 0.468518 0.301131
vt 0.095352 0.662829
vt 0.196769 0.757301
vt 0.273215 0.760043
vt 0.361477 0.737460
vt 0.440114 0.679473
vt 0.494035 0.596407
vt 0.527588 0.494568
vt 0.515872 0.400840
vt 0.452925 0.325587
vt 0.375952 0.273075
vt 0.276591 0.237167
vt 0.176317 0.258059
vt 0.105526 0.319106
vt 0.064394 0.413968
vt 0.018295 0.485278
vt 0.697207 0.991421
vt 0.842026 0.969406
vt 0.332964 0.147069
vt 0.516127 0.920190
vt 0.230635 0.088809
vt 0.471252 0.739827
vt 0.105648 0.034410
vt 0.557687 0.553786
vt 0.931256 0.503083
vt 0.735836 0.502895
vt 0.819855 0.438371
vt 0.917166 0.581989
vt 0.699912 0.361551
vt 0.960791 0.763501
vt 0.592819 0.290529
vt 0.899581 0.939920
vt 0.725056 0.755767
vt 0.266142 0.495143
vt 0.540038 0.262875
vt 0.499012 0.238859
vt 0.920412 0.852434
vt 0.648524 0.325667
vt 0.965467 0.672645
vt 0.760504 0.397668
vt 0.825711 0.528499
vt 0.873424 0.471507
vt 0.637445 0.502674
vt 0.987263 0.531834
vt 0.033087 0.016461
vt 0.476958 0.837645
vt 0.285874 0.119914
vt 0.567242 0.977400
vt 0.411577 0.189140
vt 0.502930 0.319108
vt 0.016774 0.538401
vt 0.550411 0.350075
vt 0.610473 0.384246
vt 0.665976 0.417679
vt 0.726813 0.454422
vt 0.791098 0.487876
vt 0.846187 0.520022
vt 0.903373 0.555566
vt 0.959000 0.585276
vt 0.962664 0.578220
vt 0.199466 0.151040
vt 0.254617 0.178271
vt 0.300454 0.204006
vt 0.380967 0.252359
vt 0.028116 0.022745
vt 0.966336 0.572922
vt 0.500713 0.644983
vt 0.037887 0.009580
vt 0.168537 0.060821
vt 0.079760 0.094456
vt 0.015034 0.063663
vt 0.140587 0.121498
vn 0.918938 0.000000 -0.394402
vn 0.735585 0.000000 -0.677433
vn 0.741657 0.000000 -0.670779
vn 0.924009 0.000000 -0.382370
vn 0.401453 0.031619 -0.915334
vn 0.418148 0.029371 -0.907904
vn -0.134778 0.159112 -0.978018
vn -0.134315 0.158825 -0.978128
vn -0.429641 0.231213 -0.872897
vn -0.434701 0.231320 -0.870360
vn -0.732430 0.162616 -0.661137
vn -0.738286 0.159176 -0.655436
vn -0.926061 -0.053011 -0.373632
vn -0.929996 -0.062622 -0.362196
vn -0.959095 -0.280634 -0.037164
vn -0.957791 -0.286258 -0.026324
vn -0.869432 -0.284972 0.403582
vn -0.882529 -0.300044 0.362098
vn -0.666319 -0.133513 0.733617
vn -0.663398 -0.131889 0.736552
vn -0.430626 -0.047717 0.901268
vn -0.427836 -0.047206 0.902623
vn -0.055795 -0.015098 0.998328
vn -0.045585 -0.014582 0.998854
vn 0.445811 0.000000 0.895127
vn 0.440267 0.000000 0.897867
vn 0.800994 0.000000 0.598673
vn 0.792774 0.000000 0.609515
vn 0.895232 0.000000 0.445600
vn 0.895960 0.000000 0.444136
vn 0.963226 0.000000 0.268693
vn 0.961305 0.000000 0.275485
vn 0.033219 -0.999003 0.029813
vn 0.024229 -0.998969 0.038383
vn 0.024032 -0.998983 0.038141
vn 0.033122 -0.999000 0.030031
vn 0.044107 -0.998995 0.008032
vn 0.043880 -0.999001 0.008418
vn 0.026283 -0.999644 -0.004618
vn 0.021790 -0.999753 -0.004402
vn -0.005797 -0.999970 0.005213
vn -0.006236 -0.999963 0.005899
vn -0.015787 -0.999596 0.023630
vn -0.016295 -0.999561 0.024744
vn -0.024644 -0.998621 0.046352
vn -0.024884 -0.998581 0.047078
vn -0.021913 -0.998808 0.043623
vn -0.022776 -0.998697 0.045664
vn 0.013875 -0.999862 0.009142
vn 0.005331 -0.999925 0.011035
vn 0.052212 -0.998558 0.012463
vn 0.056633 -0.998303 0.013574
vn 0.064060 -0.997876 0.011786
vn 0.069181 -0.997508 0.013852
vn 0.024521 -0.999649 0.010078
vn 0.026264 -0.999605 0.009994
vn -0.013495 -0.999757 0.017424
vn -0.015154 -0.999722 0.018068
vn -0.034986 -0.998847 0.032877
vn -0.035387 -0.998782 0.034391
vn -0.020615 -0.999272 0.032110
vn -0.022432 -0.999196 0.033234
vn 0.008712 -0.999638 0.025458
vn 0.005559 -0.999697 0.023970
vn -0.024229 0.998969 -0.038383
vn -0.033219 0.999003 -0.029813
vn -0.033122 0.999000 -0.030031
vn -0.024032 0.998983 -0.038141
vn -0.043674 0.999011 -0.008376
vn -0.043761 0.999008 -0.008222
vn -0.027544 0.999609 0.004741
vn -0.020674 0.999777 0.004388
vn 0.006277 0.999965 -0.005484
vn 0.006798 0.999957 -0.006277
vn 0.016601 0.999557 -0.024702
vn 0.016750 0.999546 -0.025044
vn 0.024690 0.998605 -0.046668
vn 0.024394 0.998657 -0.045711
vn 0.020254 0.998979 -0.040390
vn 0.021043 0.998889 -0.042177
vn -0.008108 0.999917 -0.010058
vn -0.004955 0.999929 -0.010835
vn -0.035061 0.999246 -0.016665
vn -0.048891 0.998458 -0.026312
vn -0.060488 0.997902 -0.023073
vn -0.060599 0.997892 -0.023246
vn -0.023717 0.999648 -0.011890
vn -0.024990 0.999617 -0.011936
vn 0.013495 0.999757 -0.017424
vn 0.015154 0.999722 -0.018068
vn 0.034986 0.998847 -0.032877
vn 0.035387 0.998782 -0.034391
vn 0.020615 0.999272 -0.032110
vn 0.022432 0.999196 -0.033234
vn -0.008712 0.999638 -0.025458
vn -0.005559 0.999697 -0.023970
vn -0.633588 -0.436319 0.638899
vn -0.746072 -0.504687 0.434358
vn -0.862157 -0.410758 0.296587
vn -0.659096 -0.483969 0.575644
vn -0.395311 -0.299449 0.868366
vn -0.422180 -0.308384 0.852446
vn 0.133657 -0.355654 0.925012
vn 0.110052 -0.325849 0.938995
vn 0.394137 -0.488623 0.778399
vn 0.390761 -0.488298 0.780302
vn 0.683957 -0.372749 0.627105
vn 0.716841 -0.339480 0.609009
vn 0.921422 0.057709 0.384255
vn 0.924298 0.074320 0.374365
vn 0.906377 0.417913 0.061880
vn 0.898240 0.438307 0.032430
vn 0.879392 0.255113 -0.401978
vn 0.880742 0.310407 -0.357689
vn 0.638726 -0.399387 -0.657662
vn 0.659087 -0.366917 -0.656488
vn 0.396423 -0.501734 -0.768838
vn 0.382392 -0.483279 -0.787539
vn 0.047687 -0.200663 -0.978499
vn 0.036320 -0.192951 -0.980536
vn -0.452456 -0.058288 -0.889880
vn -0.447136 -0.056987 -0.892649
vn -0.796080 -0.333325 -0.505124
vn -0.771753 -0.281999 -0.569976
vn -0.797856 -0.478754 -0.366361
vn -0.780947 -0.492807 -0.383748
vn -0.822125 -0.458988 -0.336809
vn -0.911893 -0.354561 -0.206733
vn -0.612913 0.753533 0.237752
vn -0.552867 0.724548 0.411545
vn -0.568522 0.673701 0.472134
vn -0.613981 0.752785 0.237363
vn -0.425573 0.273525 0.862596
vn -0.419942 0.267803 0.867139
vn 0.172938 -0.281498 0.943849
vn 0.142000 -0.255044 0.956446
vn 0.433085 -0.359841 0.826409
vn 0.413619 -0.360314 0.836118
vn 0.700631 -0.267368 0.661537
vn 0.713472 -0.258231 0.651363
vn 0.902853 0.115670 0.414098
vn 0.900673 0.098031 0.423295
vn 0.869986 0.489312 0.060818
vn 0.876426 0.473780 0.086084
vn 0.727426 0.611264 -0.311783
vn 0.697430 0.612920 -0.371376
vn 0.440232 0.683054 -0.582781
vn 0.482903 0.665120 -0.569578
vn 0.273174 0.607871 -0.745566
vn 0.275187 0.612945 -0.740655
vn 0.007371 0.259710 -0.965659
vn 0.014215 0.266688 -0.963678
vn -0.471122 0.109809 -0.875206
vn -0.481495 0.114463 -0.868942
vn -0.780127 0.332049 -0.530231
vn -0.759268 0.306631 -0.574012
vn -0.838185 0.279063 -0.468583
vn -0.836581 0.308987 -0.452394
vn -0.901885 0.265075 -0.341085
vn -0.909456 0.288306 -0.299615
vn -0.008729 0.999162 -0.039979
vn -0.016086 0.998754 -0.047237
vn -0.013303 0.998161 -0.059145
vn -0.010400 0.997847 -0.064760
vn 0.020134 -0.998459 0.051712
vn 0.018610 -0.998734 0.046738
vn 0.014659 -0.998628 0.050279
vn 0.011681 -0.998161 0.059477
vn -0.031157 0.998822 -0.037190
vn -0.015652 0.999603 -0.023431
vn -0.028125 0.999319 -0.023876
vn 0.008729 -0.999162 0.039979
vn 0.025847 -0.998831 0.040846
vn 0.007230 -0.999815 0.017807
vn -0.014351 0.997286 -0.072206
vn -0.025795 0.998828 -0.040957
vn -0.047197 0.996593 -0.067635
vn 0.012784 0.998361 -0.055776
vn 0.018304 0.996889 -0.076669
vn 0.024573 -0.998435 0.050240
vn 0.013176 -0.998159 0.059204
vn 0.015878 -0.998426 0.053791
vn 0.026830 -0.998572 0.046206
vn 0.031577 -0.998378 0.047376
vn -0.033546 0.998299 -0.047691
vn -0.025584 0.998400 -0.050429
vn -0.007230 0.999815 -0.017807
vn 0.020850 -0.998782 0.044729
vn 0.028307 -0.997396 0.066335
vn 0.047309 -0.996604 0.067397
vn 0.004053 0.999734 -0.022720
vn -0.016129 0.998428 -0.053676
vn 0.009801 -0.997819 0.065278
vn 0.010400 -0.997847 0.064760
s 1
g Doubloon
usemtl standardSurface2SG
f 1/1/1 2/2/2 18/3/3 17/4/4
f 2/2/2 3/5/5 19/6/6 18/3/3
f 3/5/5 4/7/7 20/8/8 19/6/6
f 4/7/7 5/9/9 21/10/10 20/8/8
f 5/9/9 6/11/11 22/12/12 21/10/10
f 6/11/11 7/13/13 23/14/14 22/12/12
f 7/13/13 8/15/15 24/129/16 23/14/14
f 8/130/15 9/17/17 25/18/18 24/16/16
f 9/17/17 10/19/19 26/20/20 25/18/18
f 10/19/19 11/21/21 27/22/22 26/20/20
f 11/21/21 12/23/23 28/24/24 27/22/22
f 12/23/23 13/25/25 29/26/26 28/24/24
f 13/25/25 14/27/27 30/28/28 29/26/26
f 14/27/27 15/29/29 31/30/30 30/28/28
f 15/29/29 16/31/31 32/32/32 31/30/30
f 16/31/31 1/1/1 17/4/4 32/32/32
s 2
f 2/2/33 1/1/34 33/33/35 34/34/36
f 3/5/37 2/2/33 34/34/36 35/35/38
f 4/7/39 3/5/37 35/35/38 36/36/40
f 5/9/41 4/7/39 36/36/40 37/37/42
f 6/11/43 5/9/41 37/37/42 38/38/44
f 7/13/45 6/11/43 38/38/44 39/39/46
f 8/15/47 7/13/45 39/39/46 40/40/48
f 9/17/49 8/130/47 40/124/48 41/41/50
f 10/19/51 9/17/49 41/41/50 42/42/52
f 11/21/53 10/19/51 42/42/52 43/43/54
f 12/23/55 11/21/53 43/43/54 44/44/56
f 13/25/57 12/23/55 44/44/56 45/45/58
f 14/27/59 13/25/57 45/45/58 46/46/60
f 15/29/61 14/27/59 46/46/60 47/47/62
f 16/31/63 15/29/61 47/47/62 48/48/64
f 1/1/34 16/31/63 48/48/64 33/33/35
s 3
f 17/4/65 18/3/66 50/49/67 49/50/68
f 18/3/66 19/6/69 51/51/70 50/49/67
f 19/6/69 20/8/71 52/52/72 51/51/70
f 20/8/71 21/10/73 53/53/74 52/52/72
f 21/10/73 22/12/75 54/54/76 53/53/74
f 22/12/75 23/14/77 55/55/78 54/54/76
f 23/14/77 24/129/79 56/109/80 55/55/78
f 24/16/79 25/18/81 57/57/82 56/56/80
f 25/18/81 26/20/83 58/58/84 57/57/82
f 26/20/83 27/22/85 59/59/86 58/58/84
f 27/22/85 28/24/87 60/60/88 59/59/86
f 28/24/87 29/26/89 61/61/90 60/60/88
f 29/26/89 30/28/91 62/62/92 61/61/90
f 30/28/91 31/30/93 63/63/94 62/62/92
f 31/30/93 32/32/95 64/64/96 63/63/94
f 32/32/95 17/4/65 49/50/68 64/64/96
s 4
f 34/34/97 33/33/98 65/65/99 66/128/100
f 35/35/101 34/34/97 66/128/100 67/127/102
f 36/36/103 35/35/101 67/127/102 68/126/104
f 37/37/105 36/36/103 68/126/104 69/125/106
f 38/38/107 37/37/105 69/125/106 70/136/108
f 39/39/109 38/38/107 70/136/108 71/134/110
f 40/40/111 39/39/109 71/134/110 72/135/112
f 41/41/113 40/124/111 72/123/112 73/122/114
f 42/42/115 41/41/113 73/122/114 74/121/116
f 43/43/117 42/42/115 74/121/116 75/120/118
f 44/44/119 43/43/117 75/120/118 76/119/120
f 45/45/121 44/44/119 76/119/120 77/118/122
f 46/46/123 45/45/121 77/118/122 78/117/124
f 47/47/125 46/46/123 78/117/124 79/116/126
f 48/48/127 47/47/125 79/116/126 80/114/128
f 33/33/98 48/48/127 80/114/128 65/65/99
s 5
f 49/50/129 50/49/130 82/113/131 81/100/132
f 50/49/130 51/51/133 83/83/134 82/113/131
f 51/51/133 52/52/135 84/111/136 83/83/134
f 52/52/135 53/53/137 85/85/138 84/111/136
f 53/53/137 54/54/139 86/133/140 85/85/138
f 54/54/139 55/55/141 87/87/142 86/133/140
f 55/55/141 56/109/143 88/132/144 87/87/142
f 56/56/143 57/57/145 89/89/146 88/108/144
f 57/57/145 58/58/147 90/106/148 89/89/146
f 58/58/147 59/59/149 91/91/150 90/106/148
f 59/59/149 60/60/151 92/104/152 91/91/150
f 60/60/151 61/61/153 93/93/154 92/104/152
f 61/61/153 62/62/155 94/102/156 93/93/154
f 62/62/155 63/63/157 95/95/158 94/102/156
f 63/63/157 64/64/159 96/99/160 95/95/158
f 64/64/159 49/50/129 81/100/132 96/99/160
s 6
f 88/88/161 97/97/162 86/86/163 87/131/164
s 7
f 98/98/165 80/80/166 79/79/167 78/78/168
s 6
f 82/81/169 97/97/162 96/96/170 81/82/171
s 7
f 72/72/172 98/98/165 74/74/173 73/73/174
s 6
f 92/92/175 97/97/162 90/90/176 91/105/177
f 94/94/178 97/97/162 92/92/175 93/103/179
s 7
f 68/68/180 98/98/165 70/70/181 69/69/182
f 66/66/183 98/98/165 68/68/180 67/67/184
s 6
f 82/81/169 83/112/185 84/84/186 97/97/162
f 90/90/176 97/97/162 88/88/161 89/107/187
s 7
f 66/66/183 65/115/188 80/80/166 98/98/165
f 74/74/173 98/98/165 76/76/189 75/75/190
s 6
f 96/96/170 97/97/162 94/94/178 95/101/191
f 86/86/163 97/97/162 84/84/186 85/110/192
s 7
f 98/98/165 78/78/168 77/77/193 76/76/189
f 70/70/181 98/98/165 72/72/172 71/71/194
