# This file uses centimeters as units for non-parametric coordinates.

mtllib EmeraldMayaExport.mtl
g default
v -0.730675 2.642184 0.733169
v -0.899003 2.983120 1.365973
v -1.506805 2.978751 0.925077
v 0.708585 2.690610 0.703221
v -0.840843 3.718619 0.594574
v 0.706077 3.628134 0.789034
v 0.899003 3.349034 1.332858
v 1.413590 3.345648 0.850830
v -1.513911 3.319773 -0.930439
v -0.609734 3.700999 -0.849234
v 0.670716 3.633578 -0.526105
v 1.409120 3.357647 -0.705503
v -1.508658 2.959787 -0.930768
v -0.880498 2.921691 -1.584799
v -0.692507 2.697877 -0.876368
v 0.590416 2.727930 -0.732686
v 0.907726 3.042564 -1.417231
v -1.507195 3.338313 0.003727
v -1.506857 3.237280 0.923099
v -1.412410 3.373836 0.875833
v -0.135601 3.336652 1.415101
v -0.890372 3.372764 1.296747
v -0.899003 3.230181 1.403169
v 1.381377 2.963670 0.636979
v 1.492820 3.126593 0.865660
v 1.310527 3.155599 -1.151377
v 1.488953 3.145139 -0.804476
v 1.328311 3.079752 -0.837601
v 0.899003 3.119562 1.298310
v 0.018995 2.995323 1.261090
v 0.862161 2.943901 1.168134
v -0.900012 3.210706 -1.585027
v -1.044743 3.360011 -1.302284
v -0.876735 3.307956 -1.515203
v 0.920898 3.332172 -1.370989
v 0.914012 3.413082 -1.287883
v 1.313251 3.401232 -0.841908
vt 0.203740 0.320123
vt 0.095421 0.253066
vt 0.298246 0.057737
vt 0.377912 0.160815
vt 0.202217 0.462511
vt 0.346946 0.480529
vt 0.303634 0.551248
vt 0.102950 0.360597
vt 0.069336 0.375419
vt 0.061952 0.242938
vt 0.737681 0.847963
vt 0.043751 0.377114
vt 0.562809 0.873066
vt 0.546036 0.704024
vt 0.379779 0.641008
vt 0.674361 0.406094
vt 0.691962 0.561193
vt 0.268372 0.013608
vt 0.389051 -0.010997
vt 0.750435 0.447042
vt 0.979545 0.613211
vt 0.866648 0.666769
vt 0.431820 0.059389
vt 0.611803 0.278195
vt 0.498816 0.319964
vt 0.283890 0.579883
vt 0.456867 0.745361
vt 0.995436 0.602588
vt 0.761114 0.432349
vt 0.157871 0.114566
vt 0.042169 0.235577
vt 0.632257 0.346334
vt 0.602190 0.392450
vt 0.426370 0.561729
vt 0.423701 0.608281
vt 0.615217 0.416962
vt 0.680519 0.379016
vt 0.453877 0.024387
vt 0.652164 0.260744
vt 0.655312 0.450639
vt 0.628114 0.453856
vt 0.975180 0.658206
vt 0.400735 0.608259
vt 0.452243 0.630987
vt 0.631236 0.405034
vt 0.773851 0.951562
vt 0.664424 0.941685
vt 0.140192 0.479013
vt 0.262121 0.607096
vt 0.887165 0.864696
vt 0.988189 0.754116
vn -0.352827 -0.935589 -0.013614
vn -0.352827 -0.935589 -0.013614
vn -0.352827 -0.935589 -0.013614
vn -0.352827 -0.935589 -0.013614
vn 0.047458 -0.863265 0.502515
vn 0.157835 -0.986338 0.047174
vn 0.155843 -0.888122 0.432379
vn -0.603012 -0.055498 0.795799
vn -0.603012 -0.055498 0.795799
vn -0.603012 -0.055498 0.795799
vn -0.603012 -0.055498 0.795799
vn 0.000625 0.901144 0.433519
vn -0.026090 0.897508 0.440226
vn 0.005126 0.901689 0.432355
vn 0.360316 0.932830 0.000668
vn 0.360316 0.932830 0.000668
vn 0.360316 0.932830 0.000668
vn 0.360316 0.932830 0.000668
vn -0.620674 -0.008340 -0.784025
vn -0.739121 0.120650 -0.662680
vn -0.702316 0.077052 -0.707683
vn 0.059531 0.916772 -0.394949
vn 0.059531 0.916772 -0.394949
vn 0.059531 0.916772 -0.394949
vn 0.059531 0.916772 -0.394949
vn 0.081559 -0.932157 -0.352749
vn 0.081559 -0.932157 -0.352749
vn 0.081559 -0.932157 -0.352749
vn 0.081559 -0.932157 -0.352749
vn 0.059985 -0.323907 0.944186
vn 0.055618 -0.268501 0.961672
vn 0.054771 -0.257922 0.964612
vn 0.054771 -0.257922 0.964612
vn 0.055843 0.998439 -0.000444
vn 0.055843 0.998439 -0.000444
vn 0.055843 0.998439 -0.000444
vn 0.055843 0.998439 -0.000444
vn 0.099499 0.079963 -0.991819
vn 0.099499 0.079963 -0.991820
vn 0.099499 0.079963 -0.991820
vn 0.099499 0.079963 -0.991820
vn 0.030110 -0.999056 -0.031304
vn 0.168738 -0.984103 -0.055401
vn 0.030110 -0.999056 -0.031304
vn -0.999992 -0.003157 0.002599
vn -0.999992 -0.003157 0.002599
vn -0.999992 -0.003157 0.002599
vn -0.999992 -0.003157 0.002599
vn -0.999992 -0.003157 0.002599
vn -0.281092 -0.874094 0.396165
vn -0.281092 -0.874094 0.396165
vn -0.281092 -0.874094 0.396165
vn -0.320898 0.858418 0.400179
vn -0.320898 0.858418 0.400179
vn -0.320898 0.858418 0.400179
vn 0.323197 0.883598 0.338820
vn 0.323197 0.883597 0.338820
vn 0.323197 0.883597 0.338820
vn -0.284849 -0.933167 -0.219226
vn -0.284849 -0.933167 -0.219226
vn -0.284849 -0.933167 -0.219226
vn 0.394907 -0.889601 -0.229474
vn 0.394907 -0.889601 -0.229474
vn 0.397212 -0.910689 -0.113441
vn -0.438167 0.898135 -0.036925
vn -0.438167 0.898135 -0.036925
vn -0.438167 0.898135 -0.036925
vn -0.438167 0.898135 -0.036925
vn -0.438167 0.898135 -0.036925
vn -0.660875 0.593932 0.458791
vn -0.657023 0.593149 0.465290
vn -0.359953 0.584332 0.727317
vn -0.398089 0.578224 0.712168
vn -0.810191 0.582626 0.064325
vn -0.095981 0.599107 0.794895
vn 0.454635 -0.733939 0.504619
vn 0.584102 -0.446959 0.677534
vn 0.510669 -0.415558 0.752681
vn 0.340136 -0.713667 0.612362
vn 0.666638 -0.744086 -0.043924
vn 0.666638 -0.744086 -0.043924
vn 0.641885 -0.763989 -0.065613
vn 0.655204 -0.753516 -0.054059
vn 0.397961 -0.916429 -0.042255
vn 0.634379 0.078251 0.769052
vn 0.634379 0.078251 0.769052
vn 0.938350 0.345687 0.000848
vn 0.938350 0.345687 0.000848
vn 0.938350 0.345687 0.000848
vn 0.938350 0.345687 0.000848
vn 0.407732 -0.881994 -0.236308
vn 0.051206 -0.601521 0.797214
vn 0.583765 0.437298 -0.684097
vn 0.707920 0.469331 -0.527804
vn 0.621047 0.448105 -0.643042
vn 0.583765 0.437298 -0.684097
vn 0.026678 0.649730 -0.759697
vn 0.007290 0.651004 -0.759039
vn 0.148731 0.655535 -0.740374
vn 0.095032 0.651934 -0.752297
vn -0.576166 0.563187 -0.592328
vn 0.607246 0.593840 -0.527832
vn -0.313947 0.878609 -0.359840
vn -0.313947 0.878609 -0.359840
vn -0.313947 0.878609 -0.359840
vn -0.313947 0.878609 -0.359840
vn 0.273966 0.951143 -0.142373
vn 0.273966 0.951143 -0.142373
vn 0.273966 0.951143 -0.142373
vn 0.273966 0.951143 -0.142373
vn 0.784482 0.481006 -0.391435
vn 0.784482 0.481006 -0.391435
vn -0.750786 0.135380 -0.646523
vn -0.750786 0.135380 -0.646523
vn 0.060641 -0.332357 0.941202
vn 0.060641 -0.332357 0.941202
vn 0.008537 0.902088 0.431468
vn 0.008537 0.902088 0.431468
vn 0.051013 -0.862069 0.504217
vn 0.051013 -0.862069 0.504217
s off
g Emerald
usemtl standardSurface2SG
f 1/1/1 3/2/2 13/3/3 15/4/4
s 1
f 30/5/5 4/6/6 31/7/7
s off
f 3/2/8 2/8/9 23/9/10 19/10/11
s 2
f 5/11/12 22/47/13 21/13/14
s off
f 6/14/15 8/44/16 12/41/17 11/17/18
s 3
f 9/18/19 33/19/20 13/3/21
s off
f 36/20/22 34/21/23 10/22/24 11/17/25
f 15/4/26 14/23/27 17/24/28 16/25/29
s 4
f 23/9/30 29/26/31 7/49/32 21/48/33
s off
f 5/11/34 6/14/35 11/17/36 10/22/37
f 32/38/38 35/39/39 17/24/40 14/23/41
s 1
f 15/4/42 16/25/43 4/6/6 1/1/44
s off
f 13/3/45 3/2/46 19/10/47 18/30/48 9/18/49
f 1/1/50 2/8/51 3/2/52
f 20/46/53 22/47/54 5/11/55
f 6/14/56 7/27/57 8/44/58
f 13/3/59 14/23/60 15/4/61
s 1
f 16/25/43 17/24/62 26/32/63 28/33/64
s off
f 18/50/65 20/46/66 5/11/67 10/22/68 9/51/69
s 6
f 20/31/70 19/10/71 23/9/72 22/12/73
f 18/30/74 19/10/71 20/31/70
f 21/48/75 22/12/73 23/9/72
s 7
f 24/34/76 25/43/77 29/26/78 31/7/79
s 8
f 25/35/80 24/34/81 28/33/82 27/36/83
s 1
f 24/34/84 4/6/6 16/25/43 28/33/64
s 7
f 29/26/78 25/43/77 8/15/85 7/49/86
s off
f 25/35/87 27/36/88 12/41/89 8/44/90
s 1
f 24/34/84 31/7/7 4/6/6
s 8
f 26/32/91 27/45/83 28/33/82
s 7
f 29/26/78 30/5/92 31/7/79
s 9
f 35/39/93 37/37/94 26/32/95 17/24/96
s 10
f 32/28/97 34/21/98 36/20/99 35/29/100
f 32/28/97 33/42/101 34/21/98
f 35/29/100 36/20/99 37/40/102
s off
f 33/42/103 9/51/104 10/22/105 34/21/106
f 11/17/107 12/41/108 37/40/109 36/20/110
s 9
f 26/32/95 37/37/94 12/16/111 27/45/112
s 3
f 13/3/21 33/19/20 32/38/113 14/23/114
s 4
f 30/5/115 29/26/31 23/9/30 2/8/116
s 2
f 5/11/12 21/13/14 7/27/117 6/14/118
s 1
f 2/8/119 1/1/120 4/6/6 30/5/5
