# This file uses centimeters as units for non-parametric coordinates.

mtllib UEF_Logo.mtl
g default
v -2.318050 0.000000 -4.127303
v 2.431950 0.000000 -4.127303
v -2.318050 0.600000 -4.127303
v 2.431950 0.600000 -4.127303
v -2.318050 0.600000 -8.877303
v 2.431950 0.600000 -8.877303
v -2.318050 0.000000 -8.877303
v 2.431950 0.000000 -8.877303
v -0.998605 0.600000 -4.127303
v -0.998605 0.600000 -8.877303
v -0.998605 0.000000 -8.877303
v -0.998605 0.000000 -4.127303
v 1.112506 0.600000 -4.127303
v 1.112506 0.600000 -8.877303
v 1.112506 0.000000 -8.877303
v 1.112506 0.000000 -4.127303
v -0.602772 0.600000 -4.127303
v -0.602772 0.600000 -8.877303
v -0.602772 0.000000 -8.877303
v -0.602772 0.000000 -4.127303
v 0.716672 0.600000 -4.127303
v 0.716672 0.600000 -8.877303
v 0.716672 0.000000 -8.877303
v 0.716672 0.000000 -4.127303
v -2.318050 0.600000 -7.557858
v -2.318050 0.000000 -7.557858
v -0.998605 0.000000 -7.557858
v -0.602772 0.000000 -7.557858
v 0.716672 0.000000 -7.557858
v 1.112506 0.000000 -7.557858
v 2.431950 0.000000 -7.557858
v 2.431950 0.600000 -7.557858
v 1.112506 0.600000 -7.557858
v 0.716672 0.600000 -7.557858
v -2.318050 0.600000 -5.446747
v -2.318050 0.000000 -5.446747
v -0.998605 0.000000 -5.446747
v -0.602772 0.000000 -5.446747
v 0.716672 0.000000 -5.446747
v 1.112506 0.000000 -5.446747
v 2.431950 0.000000 -5.446747
v 2.431950 0.600000 -5.446747
v 1.112506 0.600000 -5.446747
v 0.716672 0.600000 -5.446747
v -0.602772 0.600000 -5.446747
v -0.998605 0.600000 -5.446747
v -2.318050 0.600000 -7.162025
v -2.318050 0.000000 -7.162025
v -0.998605 0.000000 -7.162025
v -0.602772 0.000000 -7.162025
v 0.716672 0.000000 -7.162025
v 1.112506 0.000000 -7.162025
v 2.431950 0.000000 -7.162025
v 2.431950 0.600000 -7.162025
v 1.112506 0.600000 -7.162025
v 0.716672 0.600000 -7.162025
v -2.318050 0.600000 -5.842581
v -2.318050 0.000000 -5.842581
v -0.998605 0.000000 -5.842581
v -0.602772 0.000000 -5.842581
v 0.716672 0.000000 -5.842581
v 1.112506 0.000000 -5.842581
v 2.431950 0.000000 -5.842581
v 2.431950 0.600000 -5.842581
v 1.112506 0.600000 -5.842581
v 0.716672 0.600000 -5.842581
v -0.602772 0.600000 -5.842581
v -0.998605 0.600000 -5.842581
v -2.318050 1.000000 -4.127303
v -2.318050 1.000000 -5.446747
v -0.998605 1.000000 -4.127303
v -0.998605 1.000000 -5.446747
v 1.112506 1.000000 -4.127303
v 2.431950 1.000000 -4.127303
v 2.431950 1.000000 -5.446747
v 1.112506 1.000000 -5.446747
v -0.602772 1.000000 -4.127303
v 0.716672 1.000000 -4.127303
v 0.716672 1.000000 -5.446747
v -0.602772 1.000000 -5.446747
v 1.112506 1.000000 -7.557858
v 1.112506 1.000000 -8.877303
v 2.431950 1.000000 -7.557858
v 2.431950 1.000000 -8.877303
v -0.602772 1.000000 -7.557858
v -0.602772 1.000000 -8.877303
v 0.716672 1.000000 -7.557858
v 0.716672 1.000000 -8.877303
v -0.998605 1.000000 -7.557858
v -0.998605 1.000000 -8.877303
v -2.318050 1.000000 -7.557858
v -2.318050 1.000000 -8.877303
v -0.602772 1.000000 -7.162025
v 0.716672 1.000000 -7.162025
v -0.998605 1.000000 -7.162025
v -2.318050 1.000000 -7.162025
v -0.602772 1.000000 -5.842581
v 0.716672 1.000000 -5.842581
v -0.998605 1.000000 -5.842581
v -2.318050 1.000000 -5.842581
v 1.112506 1.000000 -5.842581
v 1.112506 1.000000 -7.162025
v 2.431950 1.000000 -5.842581
v 2.431950 1.000000 -7.162025
v 2.431950 0.300000 -4.127303
v 1.112506 0.300000 -4.127303
v 0.716672 0.300000 -4.127303
v -0.602772 0.300000 -4.127303
v -0.998605 0.300000 -4.127303
v -2.318050 0.300000 -4.127303
v -2.318050 0.300000 -5.446747
v -2.318050 0.300000 -5.842581
v -2.318050 0.300000 -7.162025
v -2.318050 0.300000 -7.557858
v -2.318050 0.300000 -8.877303
v -0.998605 0.300000 -8.877303
v -0.602772 0.300000 -8.877303
v 0.716672 0.300000 -8.877303
v 1.112506 0.300000 -8.877303
v 2.431950 0.300000 -8.877303
v 2.431950 0.300000 -7.557858
v 2.431950 0.300000 -7.162025
v 2.431950 0.300000 -5.842581
v 2.431950 0.300000 -5.446748
vt 0.375000 0.000000
vt 0.625000 0.000000
vt 0.375000 0.250000
vt 0.625000 0.250000
vt 0.375000 0.500000
vt 0.625000 0.500000
vt 0.375000 0.750000
vt 0.625000 0.750000
vt 0.375000 1.000000
vt 0.625000 1.000000
vt 0.875000 0.000000
vt 0.875000 0.250000
vt 0.125000 0.000000
vt 0.125000 0.250000
vt 0.444444 0.250000
vt 0.444444 0.500000
vt 0.444444 0.750000
vt 0.444444 0.000000
vt 0.444444 1.000000
vt 0.555556 0.250000
vt 0.555556 0.500000
vt 0.555556 0.750000
vt 0.555556 0.000000
vt 0.555556 1.000000
vt 0.465278 0.250000
vt 0.465278 0.500000
vt 0.465278 0.750000
vt 0.465278 0.000000
vt 0.465278 1.000000
vt 0.534722 0.250000
vt 0.534722 0.500000
vt 0.534722 0.750000
vt 0.534722 0.000000
vt 0.534722 1.000000
vt 0.194444 0.250000
vt 0.375000 0.430556
vt 0.194444 0.000000
vt 0.375000 0.819444
vt 0.444444 0.819444
vt 0.465278 0.819444
vt 0.534722 0.819444
vt 0.555556 0.819444
vt 0.625000 0.819444
vt 0.805556 0.000000
vt 0.625000 0.430556
vt 0.805556 0.250000
vt 0.555556 0.430556
vt 0.534722 0.430556
vt 0.465278 0.430556
vt 0.444444 0.430556
vt 0.305556 0.250000
vt 0.375000 0.319444
vt 0.305556 0.000000
vt 0.375000 0.930556
vt 0.444444 0.930556
vt 0.465278 0.930556
vt 0.534722 0.930556
vt 0.555556 0.930556
vt 0.625000 0.930556
vt 0.694444 0.000000
vt 0.625000 0.319444
vt 0.694444 0.250000
vt 0.555556 0.319444
vt 0.534722 0.319444
vt 0.465278 0.319444
vt 0.444444 0.319444
vt 0.215278 0.250000
vt 0.375000 0.409722
vt 0.215278 0.000000
vt 0.375000 0.840278
vt 0.444444 0.840278
vt 0.465278 0.840278
vt 0.534722 0.840278
vt 0.555556 0.840278
vt 0.625000 0.840278
vt 0.784722 0.000000
vt 0.625000 0.409722
vt 0.784722 0.250000
vt 0.555556 0.409722
vt 0.534722 0.409722
vt 0.465278 0.409722
vt 0.444444 0.409722
vt 0.284722 0.250000
vt 0.375000 0.340278
vt 0.284722 0.000000
vt 0.375000 0.909722
vt 0.444444 0.909722
vt 0.465278 0.909722
vt 0.534722 0.909722
vt 0.555556 0.909722
vt 0.625000 0.909722
vt 0.715278 0.000000
vt 0.625000 0.340278
vt 0.715278 0.250000
vt 0.555556 0.340278
vt 0.534722 0.340278
vt 0.465278 0.340278
vt 0.444444 0.340278
vt 0.375000 0.319444
vt 0.375000 0.250000
vt 0.444444 0.250000
vt 0.444444 0.319444
vt 0.555556 0.250000
vt 0.625000 0.250000
vt 0.625000 0.319444
vt 0.555556 0.319444
vt 0.465278 0.250000
vt 0.534722 0.250000
vt 0.534722 0.319444
vt 0.465278 0.319444
vt 0.555556 0.500000
vt 0.555556 0.430556
vt 0.625000 0.430556
vt 0.625000 0.500000
vt 0.534722 0.430556
vt 0.534722 0.500000
vt 0.465278 0.500000
vt 0.444444 0.500000
vt 0.375000 0.500000
vt 0.375000 0.430556
vt 0.534722 0.409722
vt 0.375000 0.409722
vt 0.555556 0.409722
vt 0.555556 0.340278
vt 0.625000 0.340278
vt 0.625000 0.409722
vt 0.465278 0.340278
vt 0.534722 0.340278
vt 0.444444 0.340278
vt 0.375000 0.340278
vt 0.625000 0.125000
vt 0.555556 0.125000
vt 0.534722 0.125000
vt 0.465278 0.125000
vt 0.444444 0.125000
vt 0.375000 0.125000
vt 0.305556 0.125000
vt 0.284722 0.125000
vt 0.215278 0.125000
vt 0.194444 0.125000
vt 0.125000 0.125000
vt 0.375000 0.625000
vt 0.444444 0.625000
vt 0.465278 0.625000
vt 0.534722 0.625000
vt 0.555556 0.625000
vt 0.625000 0.625000
vt 0.875000 0.125000
vt 0.805556 0.125000
vt 0.784722 0.125000
vt 0.715278 0.125000
vt 0.694444 0.125000
vt 0.555556 0.409722
vt 0.555556 0.340278
vt 0.555556 0.340278
vt 0.555556 0.409722
vt 0.625000 0.340278
vt 0.625000 0.340278
vt 0.625000 0.340278
vt 0.625000 0.409722
vt 0.625000 0.409722
vt 0.625000 0.340278
vt 0.625000 0.409722
vt 0.555556 0.409722
vt 0.555556 0.409722
vt 0.625000 0.409722
vt 0.465278 0.340278
vt 0.534722 0.340278
vt 0.534722 0.340278
vt 0.465278 0.340278
vt 0.534722 0.340278
vt 0.534722 0.409722
vt 0.534722 0.409722
vt 0.534722 0.340278
vt 0.444444 0.340278
vt 0.465278 0.340278
vt 0.465278 0.340278
vt 0.444444 0.340278
vt 0.375000 0.409722
vt 0.375000 0.340278
vt 0.375000 0.340278
vt 0.375000 0.409722
vt 0.444444 0.340278
vt 0.444444 0.340278
vn 0.000000 0.000000 1.000000
vn 0.000000 0.000000 1.000000
vn 0.000000 0.000000 1.000000
vn 0.000000 0.000000 1.000000
vn 0.000000 1.000000 0.000000
vn 0.000000 1.000000 0.000000
vn 0.000000 1.000000 0.000000
vn 0.000000 1.000000 0.000000
vn 0.000000 0.000000 -1.000000
vn 0.000000 0.000000 -1.000000
vn 0.000000 0.000000 -1.000000
vn 0.000000 0.000000 -1.000000
vn 0.000000 -1.000000 0.000000
vn 0.000000 -1.000000 0.000000
vn 0.000000 -1.000000 0.000000
vn 0.000000 -1.000000 0.000000
vn 1.000000 -0.000000 0.000000
vn 1.000000 -0.000000 0.000000
vn 1.000000 -0.000000 0.000000
vn 1.000000 -0.000000 0.000000
vn -1.000000 0.000000 0.000000
vn -1.000000 0.000000 0.000000
vn -1.000000 0.000000 0.000000
vn -1.000000 0.000000 0.000000
vn 0.000000 1.000000 0.000000
vn 0.000000 1.000000 0.000000
vn 0.000000 1.000000 0.000000
vn 0.000000 1.000000 0.000000
vn 0.000000 0.000000 -1.000000
vn 0.000000 0.000000 -1.000000
vn 0.000000 -1.000000 0.000000
vn 0.000000 -1.000000 0.000000
vn 0.000000 0.000000 1.000000
vn 0.000000 0.000000 1.000000
vn 0.000000 1.000000 0.000000
vn 0.000000 1.000000 0.000000
vn 0.000000 1.000000 0.000000
vn 0.000000 1.000000 0.000000
vn 0.000000 0.000000 -1.000000
vn 0.000000 0.000000 -1.000000
vn 0.000000 0.000000 -1.000000
vn 0.000000 0.000000 -1.000000
vn 0.000000 -1.000000 0.000000
vn 0.000000 -1.000000 0.000000
vn 0.000000 -1.000000 0.000000
vn 0.000000 -1.000000 0.000000
vn 0.000000 0.000000 1.000000
vn 0.000000 0.000000 1.000000
vn 0.000000 0.000000 1.000000
vn 0.000000 0.000000 1.000000
vn 0.000000 1.000000 0.000000
vn 0.000000 1.000000 0.000000
vn 0.000000 1.000000 0.000000
vn 0.000000 1.000000 0.000000
vn 0.000000 0.000000 -1.000000
vn 0.000000 0.000000 -1.000000
vn 0.000000 -1.000000 0.000000
vn 0.000000 -1.000000 0.000000
vn 0.000000 0.000000 1.000000
vn 0.000000 0.000000 1.000000
vn 0.000000 1.000000 0.000000
vn 0.000000 1.000000 0.000000
vn 0.000000 1.000000 0.000000
vn 0.000000 1.000000 0.000000
vn -1.000000 0.000000 0.000000
vn -1.000000 0.000000 0.000000
vn -1.000000 0.000000 0.000000
vn -1.000000 0.000000 0.000000
vn 0.000000 -1.000000 0.000000
vn 0.000000 -1.000000 0.000000
vn 0.000000 -1.000000 0.000000
vn 0.000000 -1.000000 0.000000
vn 0.000000 -1.000000 0.000000
vn 0.000000 -1.000000 0.000000
vn 0.000000 -1.000000 0.000000
vn 0.000000 -1.000000 0.000000
vn 0.000000 -1.000000 0.000000
vn 0.000000 -1.000000 0.000000
vn 0.000000 -1.000000 0.000000
vn 0.000000 -1.000000 0.000000
vn 1.000000 0.000000 0.000000
vn 1.000000 0.000000 0.000000
vn 1.000000 0.000000 0.000000
vn 1.000000 0.000000 0.000000
vn 0.000000 1.000000 0.000000
vn 0.000000 1.000000 0.000000
vn 0.000000 1.000000 0.000000
vn 0.000000 1.000000 0.000000
vn 0.000000 1.000000 0.000000
vn 0.000000 1.000000 0.000000
vn 0.000000 1.000000 0.000000
vn 0.000000 1.000000 0.000000
vn 0.000000 1.000000 0.000000
vn 0.000000 1.000000 0.000000
vn 0.000000 1.000000 0.000000
vn 0.000000 1.000000 0.000000
vn 0.000000 1.000000 0.000000
vn 0.000000 1.000000 0.000000
vn 0.000000 1.000000 0.000000
vn 0.000000 1.000000 0.000000
vn -1.000000 0.000000 0.000000
vn -1.000000 0.000000 0.000000
vn 0.000000 -1.000000 0.000000
vn 0.000000 -1.000000 0.000000
vn 0.000000 -1.000000 0.000000
vn 0.000000 -1.000000 0.000000
vn 0.000000 -1.000000 0.000000
vn 0.000000 -1.000000 0.000000
vn 1.000000 0.000000 0.000000
vn 1.000000 -0.000000 0.000000
vn 0.000000 1.000000 0.000000
vn 0.000000 1.000000 0.000000
vn 0.000000 1.000000 0.000000
vn 0.000000 1.000000 0.000000
vn 0.000000 1.000000 0.000000
vn 0.000000 1.000000 0.000000
vn 0.000000 1.000000 0.000000
vn 0.000000 1.000000 0.000000
vn -1.000000 0.000000 0.000000
vn -1.000000 0.000000 0.000000
vn 0.000000 -1.000000 0.000000
vn 0.000000 -1.000000 0.000000
vn 0.000000 -1.000000 0.000000
vn 0.000000 -1.000000 0.000000
vn 0.000000 -1.000000 0.000000
vn 0.000000 -1.000000 0.000000
vn 1.000000 0.000000 0.000000
vn 1.000000 0.000000 0.000000
vn 0.000000 1.000000 0.000000
vn 0.000000 1.000000 0.000000
vn 0.000000 1.000000 0.000000
vn 0.000000 1.000000 0.000000
vn 0.000000 1.000000 0.000000
vn 0.000000 1.000000 0.000000
vn 0.000000 1.000000 0.000000
vn 0.000000 1.000000 0.000000
vn 0.000000 1.000000 0.000000
vn 0.000000 1.000000 0.000000
vn 0.000000 1.000000 0.000000
vn 0.000000 1.000000 0.000000
vn 0.000000 1.000000 0.000000
vn 0.000000 1.000000 0.000000
vn 0.000000 1.000000 0.000000
vn 0.000000 1.000000 0.000000
vn -1.000000 0.000000 0.000000
vn -1.000000 0.000000 0.000000
vn -1.000000 0.000000 0.000000
vn -1.000000 0.000000 0.000000
vn 0.000000 0.000000 1.000000
vn 0.000000 0.000000 1.000000
vn 0.000000 0.000000 1.000000
vn 0.000000 0.000000 1.000000
vn 1.000000 0.000000 0.000000
vn 1.000000 0.000000 0.000000
vn 1.000000 0.000000 0.000000
vn 1.000000 0.000000 0.000000
vn 0.000000 0.000000 -1.000000
vn 0.000000 0.000000 -1.000000
vn 0.000000 0.000000 -1.000000
vn 0.000000 0.000000 -1.000000
vn 0.000000 0.000000 1.000000
vn 0.000000 0.000000 1.000000
vn 0.000000 0.000000 1.000000
vn 0.000000 0.000000 1.000000
vn 1.000000 0.000000 0.000000
vn 1.000000 0.000000 0.000000
vn 1.000000 0.000000 0.000000
vn 1.000000 0.000000 0.000000
vn 0.000000 0.000000 -1.000000
vn 0.000000 0.000000 -1.000000
vn 0.000000 0.000000 -1.000000
vn 0.000000 0.000000 -1.000000
vn -1.000000 0.000000 0.000000
vn -1.000000 0.000000 0.000000
vn -1.000000 0.000000 0.000000
vn -1.000000 0.000000 0.000000
vn 0.000000 0.000000 1.000000
vn 0.000000 0.000000 1.000000
vn 0.000000 0.000000 1.000000
vn 0.000000 0.000000 1.000000
vn 1.000000 0.000000 0.000000
vn 1.000000 0.000000 0.000000
vn 1.000000 0.000000 0.000000
vn 1.000000 0.000000 0.000000
vn 0.000000 0.000000 -1.000000
vn 0.000000 0.000000 -1.000000
vn 0.000000 0.000000 -1.000000
vn 0.000000 0.000000 -1.000000
vn -1.000000 0.000000 0.000000
vn -1.000000 0.000000 0.000000
vn -1.000000 0.000000 0.000000
vn -1.000000 0.000000 0.000000
vn -1.000000 0.000000 0.000000
vn -1.000000 0.000000 0.000000
vn -1.000000 0.000000 0.000000
vn -1.000000 0.000000 0.000000
vn 0.000000 0.000000 1.000000
vn 0.000000 0.000000 1.000000
vn 0.000000 0.000000 1.000000
vn 0.000000 0.000000 1.000000
vn 1.000000 0.000000 0.000000
vn 1.000000 0.000000 0.000000
vn 1.000000 0.000000 0.000000
vn 1.000000 0.000000 0.000000
vn 0.000000 0.000000 -1.000000
vn 0.000000 0.000000 -1.000000
vn 0.000000 0.000000 -1.000000
vn 0.000000 0.000000 -1.000000
vn 1.000000 0.000000 0.000000
vn 1.000000 0.000000 0.000000
vn 1.000000 0.000000 0.000000
vn 1.000000 0.000000 0.000000
vn 0.000000 0.000000 -1.000000
vn 0.000000 0.000000 -1.000000
vn 0.000000 0.000000 -1.000000
vn 0.000000 0.000000 -1.000000
vn 0.000000 0.000000 -1.000000
vn 0.000000 0.000000 -1.000000
vn -1.000000 0.000000 0.000000
vn -1.000000 0.000000 0.000000
vn -1.000000 0.000000 0.000000
vn -1.000000 0.000000 0.000000
vn 0.000000 0.000000 -1.000000
vn 0.000000 0.000000 -1.000000
vn 1.000000 0.000000 0.000000
vn 1.000000 0.000000 0.000000
vn -1.000000 0.000000 0.000000
vn -1.000000 0.000000 0.000000
vn 0.000000 0.000000 1.000000
vn 0.000000 0.000000 1.000000
vn 0.000000 0.000000 1.000000
vn 0.000000 0.000000 1.000000
vn 1.000000 0.000000 0.000000
vn 1.000000 0.000000 0.000000
vn 0.000000 0.000000 1.000000
vn 0.000000 0.000000 1.000000
vn -1.000000 0.000000 0.000000
vn -1.000000 0.000000 0.000000
vn 0.000000 0.000000 1.000000
vn 0.000000 0.000000 1.000000
vn -1.000000 0.000000 0.000000
vn -1.000000 0.000000 0.000000
vn -1.000000 0.000000 0.000000
vn -1.000000 0.000000 0.000000
vn 0.000000 0.000000 1.000000
vn 0.000000 0.000000 1.000000
vn 0.000000 0.000000 1.000000
vn 0.000000 0.000000 1.000000
vn 1.000000 0.000000 0.000000
vn 1.000000 0.000000 0.000000
vn 1.000000 0.000000 0.000000
vn 1.000000 0.000000 0.000000
vn 0.000000 0.000000 -1.000000
vn 0.000000 0.000000 -1.000000
vn 0.000000 0.000000 -1.000000
vn 0.000000 0.000000 -1.000000
s 1
g UEF_Logo
usemtl initialShadingGroup
f 109/135/1 110/136/2 1/1/3 12/18/4
s off
f 70/99/5 69/100/6 71/101/7 72/102/8
s 2
f 7/7/9 115/142/10 116/143/11 11/17/12
s 3
f 12/19/13 1/9/14 36/54/15 37/55/16
s 4
f 124/152/17 105/131/18 2/2/19 41/60/20
s 5
f 1/1/21 110/136/22 111/137/23 36/53/24
s 6
f 9/15/25 17/25/26 45/65/27 46/66/28
s 2
f 19/27/29 11/17/12 116/143/11 117/144/30
s 3
f 20/29/31 12/19/13 37/55/16 38/56/32
s 1
f 108/134/33 109/135/1 12/18/4 20/28/34
s off
f 73/103/35 74/104/36 75/105/37 76/106/38
s 2
f 8/8/39 15/22/40 119/146/41 120/147/42
s 3
f 2/10/43 16/24/44 40/58/45 41/59/46
s 1
f 105/131/47 106/132/48 16/23/49 2/2/50
s off
f 77/107/51 78/108/52 79/109/53 80/110/54
s 2
f 23/32/55 19/27/29 117/144/30 118/145/56
s 3
f 24/34/57 20/29/31 38/56/32 39/57/58
s 1
f 107/133/59 108/134/33 20/28/34 24/33/60
s 6
f 21/30/61 13/20/62 43/63/63 44/64/64
s 2
f 15/22/40 23/32/55 118/145/56 119/146/41
s 3
f 16/24/44 24/34/57 39/57/58 40/58/45
s 1
f 106/132/48 107/133/59 24/33/60 16/23/49
s 5
f 26/37/65 114/140/66 115/141/67 7/13/68
s 3
f 27/39/69 26/38/70 7/7/71 11/17/72
f 28/40/73 27/39/69 11/17/72 19/27/74
f 29/41/75 28/40/73 19/27/74 23/32/76
f 30/42/77 29/41/75 23/32/76 15/22/78
f 31/43/79 30/42/77 15/22/78 8/8/80
s 4
f 120/148/81 121/149/82 31/44/83 8/11/84
s off
f 82/111/85 81/112/86 83/113/87 84/114/88
s 6
f 22/31/89 34/48/90 33/47/91 14/21/92
s 15
f 86/117/93 85/49/94 87/115/95 88/116/96
f 90/118/97 89/50/98 85/49/94 86/117/93
f 92/119/99 91/120/100 89/50/98 90/118/97
s 5
f 36/53/24 111/137/23 112/138/101 58/85/102
s 3
f 37/55/16 36/54/15 58/86/103 59/87/104
f 38/56/32 37/55/16 59/87/104 60/88/105
f 39/57/58 38/56/32 60/88/105 61/89/106
f 40/58/45 39/57/58 61/89/106 62/90/107
f 41/59/46 40/58/45 62/90/107 63/91/108
s 4
f 123/151/109 124/152/17 41/60/20 63/92/110
s 6
f 65/95/111 43/63/63 42/61/112 64/93/113
f 66/96/114 44/64/64 43/63/63 65/95/111
f 67/97/115 45/65/27 44/64/64 66/96/114
f 68/98/116 46/66/28 45/65/27 67/97/115
f 57/84/117 35/52/118 46/66/28 68/98/116
s 5
f 48/69/119 113/139/120 114/140/66 26/37/65
s 3
f 49/71/121 48/70/122 26/38/70 27/39/69
f 50/72/123 49/71/121 27/39/69 28/40/73
f 51/73/124 50/72/123 28/40/73 29/41/75
f 52/74/125 51/73/124 29/41/75 30/42/77
f 53/75/126 52/74/125 30/42/77 31/43/79
s 4
f 121/149/82 122/150/127 53/76/128 31/44/83
s 6
f 33/47/91 55/79/129 54/77/130 32/45/131
f 34/48/90 56/80/132 55/79/129 33/47/91
s 15
f 85/49/94 93/81/133 94/121/134 87/115/95
f 89/50/98 95/82/135 93/81/133 85/49/94
f 91/120/100 96/122/136 95/82/135 89/50/98
s 5
f 58/85/102 112/138/101 113/139/120 48/69/119
s 3
f 59/87/104 58/86/103 48/70/122 49/71/121
f 60/88/105 59/87/104 49/71/121 50/72/123
f 61/89/106 60/88/105 50/72/123 51/73/124
f 62/90/107 61/89/106 51/73/124 52/74/125
f 63/91/108 62/90/107 52/74/125 53/75/126
s 4
f 122/150/127 123/151/109 63/92/110 53/76/128
s off
f 102/123/137 101/124/138 103/125/139 104/126/140
s 6
f 56/80/132 66/96/114 65/95/111 55/79/129
s 15
f 93/81/133 97/127/141 98/128/142 94/121/134
f 95/82/135 99/129/143 97/127/141 93/81/133
f 96/122/136 100/130/144 99/129/143 95/82/135
s 5
f 35/52/145 3/3/146 69/100/147 70/99/148
s 1
f 3/3/149 9/15/150 71/101/151 69/100/152
s off
f 9/15/153 46/66/154 72/102/155 71/101/156
f 46/66/157 35/52/158 70/99/159 72/102/160
s 1
f 13/20/161 4/4/162 74/104/163 73/103/164
s 4
f 4/4/165 42/61/166 75/105/167 74/104/168
s off
f 42/61/169 43/63/170 76/106/171 75/105/172
f 43/63/173 13/20/174 73/103/175 76/106/176
s 1
f 17/25/177 21/30/178 78/108/179 77/107/180
s off
f 21/30/181 44/64/182 79/109/183 78/108/184
f 44/64/185 45/65/186 80/110/187 79/109/188
f 45/65/189 17/25/190 77/107/191 80/110/192
f 14/21/193 33/47/194 81/112/195 82/111/196
f 33/47/197 32/45/198 83/113/199 81/112/200
s 4
f 32/45/201 6/6/202 84/114/203 83/113/204
s 2
f 6/6/205 14/21/206 82/111/207 84/114/208
s 16
f 34/48/209 22/31/210 88/116/211 87/115/212
s 2
f 22/31/213 18/26/214 86/117/215 88/116/216
f 18/26/214 10/16/217 90/118/218 86/117/215
s 5
f 5/5/219 25/36/220 91/120/221 92/119/222
s 2
f 10/16/217 5/5/223 92/119/224 90/118/218
s 16
f 56/80/225 34/48/209 87/115/212 94/121/226
s 5
f 25/36/220 47/68/227 96/122/228 91/120/221
s 17
f 67/153/229 66/154/230 98/155/231 97/156/232
s 16
f 66/154/233 56/157/225 94/158/226 98/155/234
s 17
f 68/159/235 67/160/229 97/161/232 99/162/236
s 5
f 47/163/227 57/164/237 100/165/238 96/166/228
s 17
f 57/167/239 68/168/235 99/169/236 100/170/240
s off
f 55/171/241 65/172/242 101/173/243 102/174/244
f 65/175/245 64/176/246 103/177/247 101/178/248
s 4
f 64/179/249 54/180/250 104/181/251 103/182/252
s off
f 54/180/253 55/183/254 102/184/255 104/181/256
s 1
f 4/4/162 13/20/161 106/132/48 105/131/47
f 13/20/161 21/30/178 107/133/59 106/132/48
f 21/30/178 17/25/177 108/134/33 107/133/59
f 17/25/177 9/15/150 109/135/1 108/134/33
f 9/15/150 3/3/149 110/136/2 109/135/1
s 5
f 111/137/23 110/136/22 3/3/146 35/51/145
f 112/138/101 111/137/23 35/51/145 57/83/237
f 113/139/120 112/138/101 57/83/237 47/67/227
f 114/140/66 113/139/120 47/67/227 25/35/220
f 115/141/67 114/140/66 25/35/220 5/14/219
s 2
f 116/143/11 115/142/10 5/5/223 10/16/217
f 117/144/30 116/143/11 10/16/217 18/26/214
f 118/145/56 117/144/30 18/26/214 22/31/213
f 119/146/41 118/145/56 22/31/213 14/21/206
f 120/147/42 119/146/41 14/21/206 6/6/205
s 4
f 6/12/202 32/46/201 121/149/82 120/148/81
f 32/46/201 54/78/250 122/150/127 121/149/82
f 54/78/250 64/94/249 123/151/109 122/150/127
f 64/94/249 42/62/166 124/152/17 123/151/109
f 4/4/165 105/131/18 124/152/17 42/62/166
