# This file uses centimeters as units for non-parametric coordinates.

mtllib UEF_Baseplate.mtl
g default
v -2.500000 0.000000 2.500000
v 2.500000 0.000000 2.500000
v -2.500000 0.000000 -2.500000
v 2.500000 0.000000 -2.500000
v 0.817149 1.000000 -0.427382
v 1.407451 1.000000 0.416027
v 0.403712 1.000000 1.411664
v -0.429367 1.000000 0.809072
v 0.283864 0.134904 0.309882
v 0.978031 0.303395 1.009698
v 2.500000 0.000000 0.400000
v 0.400000 0.000000 2.500000
v 0.416961 0.000000 0.420181
v 0.905582 1.000000 0.913846
v 0.193891 1.000000 0.190845
v 2.500000 0.900015 2.500000
v 2.400015 1.000000 2.400015
v 0.400000 0.900015 2.500000
v 0.400341 1.000000 2.400016
v -2.500000 0.900015 2.500000
v -2.400015 1.000000 2.400015
v -2.500000 0.900015 -2.500000
v -2.400015 1.000000 -2.400015
v 2.500000 0.900015 -2.500000
v 2.400015 1.000000 -2.400015
v 2.500000 0.900010 0.400000
v 2.400021 1.000000 0.401467
vt 0.375000 1.000000
vt 0.625000 0.750000
vt 0.625000 1.000000
vt 0.625000 0.000000
vt 0.625000 1.000000
vt 0.625000 0.250000
vt 0.625000 0.895000
vt 0.520000 1.000000
vt 0.520848 0.896009
vt 0.262498 0.412495
vt 0.262757 0.397035
vt 0.762498 0.337506
vt 0.749310 0.370690
vt 0.520000 0.000000
vt 0.375000 0.225004
vt 0.375000 0.000000
vt 0.237502 0.337506
vt 0.125000 0.000000
vt 0.730000 0.225002
vt 0.875000 0.000000
vt 0.375000 0.750000
vt 0.737502 0.412494
vt 0.730000 0.000000
vt 0.625000 0.225004
vt 0.520000 0.225004
vt 0.625000 0.000000
vt 0.598993 0.276605
vt 0.720391 0.254869
vt 0.623395 0.251668
vt 0.572986 0.250000
vt 0.743684 0.379436
vt 0.625000 0.303210
vt 0.560405 0.500000
vt 0.524868 0.250000
vt 0.383494 0.262530
vt 0.592703 0.966960
vt 0.262724 0.396941
vt 0.658040 0.466960
vn 0.000000 -1.000000 0.000000
vn 0.000000 -1.000000 0.000000
vn 0.000000 -1.000000 0.000000
vn 0.000000 -1.000000 0.000000
vn -0.581135 0.704874 0.406737
vn -0.581136 0.704874 0.406737
vn -0.581136 0.704874 0.406737
vn -0.581136 0.704874 0.406737
vn 0.424751 0.689031 -0.587216
vn 0.424751 0.689031 -0.587216
vn 0.424751 0.689031 -0.587216
vn 0.424751 0.689031 -0.587216
vn 0.694167 0.168490 0.699816
vn 0.694167 0.168490 0.699816
vn 0.694167 0.168490 0.699816
vn 0.694167 0.168490 0.699816
vn -0.694167 -0.168490 -0.699816
vn -0.694167 -0.168490 -0.699816
vn -0.694167 -0.168490 -0.699816
vn -0.694167 -0.168490 -0.699816
vn 0.000000 -1.000000 0.000000
vn 0.000000 -1.000000 0.000000
vn 0.000000 -1.000000 0.000000
vn 0.000000 0.707106 0.707107
vn 0.000000 0.707106 0.707107
vn 0.000000 0.707106 0.707107
vn -0.000000 0.707106 0.707107
vn 0.707126 0.707087 0.000000
vn 0.707126 0.707087 0.000000
vn 0.707126 0.707087 -0.000000
vn 0.707126 0.707087 0.000000
vn -0.000000 0.707106 0.707108
vn -0.000000 0.707106 0.707108
vn -0.707106 0.707107 0.000000
vn -0.707106 0.707107 0.000000
vn -0.707106 0.707107 0.000000
vn -0.707106 0.707107 0.000000
vn 0.000000 0.707107 -0.707106
vn 0.000000 0.707107 -0.707107
vn 0.000000 0.707107 -0.707107
vn 0.000000 0.707107 -0.707106
vn 0.707126 0.707087 -0.000000
vn 0.707126 0.707087 -0.000000
vn 0.000000 0.000000 1.000000
vn 0.000000 0.000000 1.000000
vn 0.000000 0.000000 1.000000
vn 0.000000 0.000000 1.000000
vn -1.000000 0.000000 0.000000
vn -1.000000 0.000000 0.000000
vn -1.000000 0.000000 0.000000
vn -1.000000 0.000000 0.000000
vn 1.000000 0.000000 0.000000
vn 1.000000 0.000000 0.000000
vn 1.000000 0.000000 0.000000
vn 1.000000 0.000000 0.000000
vn 0.000000 0.000000 -1.000000
vn 0.000000 0.000000 -1.000000
vn 0.000000 0.000000 -1.000000
vn 0.000000 0.000000 -1.000000
vn 1.000000 0.000000 0.000000
vn 1.000000 0.000000 0.000000
vn -0.000000 0.000000 1.000000
vn -0.000000 0.000000 1.000000
vn 0.000000 1.000000 0.000000
vn 0.000000 1.000000 0.000000
vn 0.000000 1.000000 0.000000
vn 0.000000 1.000000 0.000000
vn 0.000000 1.000000 0.000000
vn 0.000000 1.000000 0.000000
vn 0.000000 1.000000 -0.000000
vn 0.000000 1.000000 -0.000000
vn 0.000000 1.000000 0.000000
vn 0.000000 1.000000 0.000000
vn 0.000000 1.000000 -0.000000
vn 0.000000 1.000000 -0.000000
s 1
g Baseplate
usemtl initialShadingGroup
f 13/9/1 3/21/2 4/2/3 11/7/4
s off
f 5/38/5 9/4/6 10/6/7 6/32/8
f 10/6/9 9/4/10 8/33/11 7/30/12
f 5/38/13 15/36/14 8/33/15 9/5/16
f 6/32/17 10/6/18 7/30/19 14/27/20
s 1
f 12/8/21 13/9/1 11/7/4 2/3/22
f 1/1/23 3/21/2 13/9/1 12/8/21
s 2
f 16/24/24 17/29/25 19/34/26 18/25/27
s 3
f 17/29/28 16/24/29 26/19/30 27/28/31
s 2
f 18/25/27 19/34/26 21/35/32 20/15/33
s off
f 20/15/34 21/35/35 23/37/36 22/17/37
f 22/10/38 23/11/39 25/31/40 24/22/41
s 3
f 24/12/42 25/13/43 27/28/31 26/19/30
s 4
f 1/16/44 12/14/45 18/25/46 20/15/47
s off
f 1/16/48 20/15/49 22/17/50 3/18/51
s 5
f 26/19/52 11/23/53 4/20/54 24/12/55
s off
f 3/21/56 22/10/57 24/22/58 4/2/59
s 5
f 2/26/60 11/23/53 26/19/52 16/24/61
s 4
f 18/25/46 12/14/45 2/26/62 16/24/63
s 6
f 6/32/64 14/27/65 17/29/66 27/28/67
f 19/34/68 17/29/66 14/27/65 7/30/69
f 27/28/67 25/31/70 5/38/71 6/32/64
f 7/30/69 8/33/72 21/35/73 19/34/68
f 23/37/74 21/35/73 8/33/72 15/36/75
f 25/31/70 23/37/74 15/36/75 5/38/71
