# This file uses centimeters as units for non-parametric coordinates.

mtllib FloorTile.mtl
g default
v -47.895462 -0.000000 -11.145172
v -47.895462 -0.000000 48.854843
v 12.104538 -0.000000 -11.145172
v 12.104538 -0.000000 48.854843
v -47.895462 27.750223 -11.145172
v -46.348907 30.000002 -9.598602
v -46.348907 30.000002 47.308258
v -47.895462 27.750223 48.854843
v 10.557983 30.000002 -9.598602
v 12.104538 27.750223 -11.145172
v 10.557983 30.000002 47.308258
v 12.104538 27.750223 48.854843
vt 0.875451 0.498598
vt 0.394893 0.346763
vt 0.242241 0.829724
vt 0.723979 0.981504
vt 0.725414 0.830292
vt 0.712806 0.817543
vt 0.711696 0.510687
vt 0.724398 0.498104
vt 0.393260 0.830312
vt 0.405988 0.817738
vt 0.392658 0.498085
vt 0.405237 0.510839
vt 0.722811 0.347466
vt 0.241715 0.499761
vt 0.723044 0.021180
vt 0.876322 0.828515
vt 0.396336 0.020161
vt 0.394122 0.981063
vn 0.000000 -1.000000 0.000000
vn 0.000000 -1.000000 0.000000
vn 0.000000 -1.000000 0.000000
vn 0.000000 -1.000000 0.000000
vn 0.000000 0.566491 -0.824068
vn 0.000000 0.566491 -0.824068
vn 0.000000 0.566491 -0.824068
vn 0.000000 0.566491 -0.824068
vn -0.824070 0.566488 0.000000
vn -0.824070 0.566488 0.000000
vn -0.824070 0.566488 0.000000
vn -0.824070 0.566488 0.000000
vn 0.000000 0.566495 0.824066
vn 0.000000 0.566495 0.824066
vn 0.000000 0.566495 0.824066
vn 0.000000 0.566495 0.824066
vn 0.824071 0.566487 0.000000
vn 0.824071 0.566487 0.000000
vn 0.824071 0.566487 0.000000
vn 0.824071 0.566487 0.000000
vn -1.000000 0.000000 0.000000
vn -1.000000 0.000000 0.000000
vn -1.000000 0.000000 0.000000
vn -1.000000 0.000000 0.000000
vn 0.000000 1.000000 0.000000
vn 0.000000 1.000000 0.000000
vn 0.000000 1.000000 0.000000
vn 0.000000 1.000000 0.000000
vn 1.000000 0.000000 0.000000
vn 1.000000 0.000000 0.000000
vn 1.000000 0.000000 0.000000
vn 1.000000 0.000000 0.000000
vn 0.000000 0.000000 1.000000
vn 0.000000 0.000000 1.000000
vn 0.000000 0.000000 1.000000
vn 0.000000 0.000000 1.000000
vn 0.000000 0.000000 -1.000000
vn 0.000000 0.000000 -1.000000
vn 0.000000 0.000000 -1.000000
vn 0.000000 0.000000 -1.000000
s off
g FloorTile
usemtl initialShadingGroup
f 3/13/1 4/2/2 2/17/3 1/15/4
f 5/5/5 6/6/6 9/7/7 10/8/8
f 6/6/9 5/5/10 8/9/11 7/10/12
f 7/10/13 8/9/14 12/11/15 11/12/16
f 10/8/17 9/7/18 11/12/19 12/11/20
f 1/4/21 2/18/22 8/9/23 5/5/24
f 6/6/25 7/10/26 11/12/27 9/7/28
f 10/8/29 12/11/30 4/2/31 3/13/32
f 2/3/33 4/14/34 12/11/35 8/9/36
f 3/1/37 1/16/38 5/5/39 10/8/40
